<svg width="40" height="41" viewBox="0 0 40 41" fill="none" xmlns="http://www.w3.org/2000/svg">
<path fill-rule="evenodd" clip-rule="evenodd" d="M18.4986 0.541032C15.5958 0.818791 13.3894 1.43539 10.978 2.64281C7.80444 4.2318 4.86176 6.92768 2.92639 10.0193C1.52914 12.2511 0.509778 15.1369 0.0981689 18.0255C-0.032723 18.9442 -0.032723 22.0278 0.0981689 22.9464C0.425985 25.2472 1.03507 27.2626 1.98667 29.1952C3.0633 31.3818 4.11787 32.8508 5.8589 34.5891C7.58091 36.3082 9.07525 37.3818 11.1834 38.4142C12.6543 39.1346 13.604 39.4853 15.0953 39.8587C19.0082 40.8386 22.9327 40.6507 26.7557 39.3005C27.9146 38.8912 29.9375 37.879 30.9775 37.1881C33.8331 35.2911 36.1929 32.6717 37.7554 29.6649C39.1691 26.9443 39.8765 24.2451 39.9869 21.1499C40.1056 17.8186 39.4195 14.6481 37.9349 11.6679C36.9601 9.71105 35.8748 8.17736 34.3511 6.60321C32.6614 4.85746 31.004 3.65301 28.7869 2.55931C26.4694 1.41617 24.3101 0.805981 21.7455 0.569386C20.9484 0.495885 19.1363 0.480029 18.4986 0.541032ZM25.2871 11.5557L25.308 13.5218L23.8788 13.5475C21.7179 13.5865 21.7064 13.5982 21.7064 15.7578V17.1273H23.5449C24.5562 17.1273 25.3835 17.1377 25.3835 17.1505C25.3835 17.1633 25.2955 18.0105 25.1879 19.0332C25.0804 20.0558 24.9923 20.9593 24.9923 21.0408C24.9923 21.1816 24.9106 21.189 23.3493 21.189H21.7064V26.9691V32.7492H19.281H16.8556V26.9691V21.189H15.7212H14.5867V19.1581V17.1273H15.7121H16.8375L16.8756 15.3112C16.919 13.2553 17.0003 12.8147 17.5181 11.831C18.1617 10.6081 19.3409 9.83251 20.8583 9.63403C21.1312 9.59833 22.2345 9.57373 23.3102 9.57935L25.2662 9.58966L25.2871 11.5557Z" fill="#FFA800"/>
</svg>
