<svg width="40" height="40" viewBox="0 0 40 40" fill="none" xmlns="http://www.w3.org/2000/svg">
<path fill-rule="evenodd" clip-rule="evenodd" d="M18.4986 0.0376403C15.5958 0.315591 13.3894 0.932617 10.978 2.14087C7.80444 3.73096 4.86176 6.42871 2.92639 9.52243C1.52914 11.7558 0.509778 14.6436 0.0981689 17.5342C-0.032723 18.4535 -0.032723 21.5393 0.0981689 22.4586C0.425985 24.7609 1.03507 26.7777 1.98667 28.7117C3.0633 30.8998 4.11787 32.3698 5.8589 34.1093C7.58091 35.8296 9.07525 36.9039 11.1834 37.937C12.6543 38.6579 13.604 39.0088 15.0953 39.3825C19.0082 40.3631 22.9327 40.175 26.7557 38.8239C27.9146 38.4144 29.9375 37.4015 30.9775 36.7101C33.8331 34.8117 36.1929 32.1906 37.7554 29.1817C39.1691 26.4592 39.8765 23.7581 39.9869 20.6608C40.1056 17.3272 39.4195 14.1545 37.9349 11.1722C36.9601 9.214 35.8748 7.67925 34.3511 6.10402C32.6614 4.35705 31.004 3.15177 28.7869 2.05732C26.4694 0.913388 24.3101 0.302772 21.7455 0.0660138C20.9484 -0.00753837 19.1363 -0.0234056 18.4986 0.0376403ZM25.2871 11.0599L25.308 13.0274L23.8788 13.0531C21.7179 13.0921 21.7064 13.1038 21.7064 15.265V16.6353H23.5449C24.5562 16.6353 25.3835 16.6458 25.3835 16.6586C25.3835 16.6715 25.2955 17.5192 25.1879 18.5426C25.0804 19.5659 24.9923 20.47 24.9923 20.5516C24.9923 20.6925 24.9106 20.6999 23.3493 20.6999H21.7064V26.484V32.2681H19.281H16.8556V26.484V20.6999H15.7212H14.5867V18.6676V16.6353H15.7121H16.8375L16.8756 14.818C16.919 12.7607 17.0003 12.3198 17.5181 11.3354C18.1617 10.1117 19.3409 9.33554 20.8583 9.13693C21.1312 9.10121 22.2345 9.07659 23.3102 9.08221L25.2662 9.09253L25.2871 11.0599Z" fill="black"/>
</svg>
