<svg width="40" height="40" viewBox="0 0 40 40" fill="none" xmlns="http://www.w3.org/2000/svg">
<path fill-rule="evenodd" clip-rule="evenodd" d="M18.1325 0.046443C11.3351 0.702074 5.26377 4.81764 2.18717 10.8554C1.09912 12.9907 0.456237 15.0497 0.10446 17.5255C-0.0514672 18.6235 -0.0288452 21.4639 0.145712 22.688C0.455689 24.8618 1.09709 26.9217 2.08009 28.9006C4.03036 32.8265 7.14593 35.9394 11.0827 37.8955C17.4645 41.0665 25.0068 40.6305 30.9592 36.7464C33.2866 35.2277 35.4924 32.9763 36.9982 30.5823C37.5705 29.6724 38.4346 27.9035 38.8271 26.8387C39.2225 25.7655 39.6837 23.903 39.8547 22.688C40.028 21.4572 40.0514 18.6099 39.8971 17.5255C39.4351 14.2773 38.4042 11.512 36.6929 8.92937C35.965 7.83102 35.2382 6.94488 34.2255 5.92138C31.1035 2.76603 27.22 0.809077 22.7793 0.153525C21.8218 0.0121832 19.1307 -0.0498444 18.1325 0.046443ZM25.5674 10.1577C27.75 10.813 29.3146 12.4256 29.8704 14.5924C30.0327 15.2248 30.0327 24.7541 29.8704 25.3865C29.2978 27.6188 27.6355 29.2799 25.4015 29.8521C24.7686 30.0142 15.2323 30.0142 14.5995 29.8521C12.4132 29.2922 10.7792 27.696 10.1562 25.5116C10.0333 25.0807 10.0202 24.5462 10.0202 19.9894C10.0202 14.4745 10.0088 14.6309 10.4916 13.5401C11.2318 11.8674 12.91 10.4797 14.5994 10.143C14.8362 10.0958 15.1004 10.0424 15.1865 10.0244C15.2726 10.0064 17.5445 9.9994 20.2353 10.0087C24.5685 10.0237 25.1779 10.0408 25.5674 10.1577ZM14.9332 12.1317C14.2597 12.313 13.7301 12.6289 13.1823 13.1763C12.6222 13.736 12.3165 14.2555 12.133 14.9594C11.9575 15.6328 11.9602 24.3563 12.1361 25.0313C12.3215 25.7426 12.6917 26.3583 13.245 26.8754C13.8016 27.3958 14.2979 27.677 14.9667 27.8511C15.6406 28.0265 24.3706 28.0238 25.0461 27.848C25.7579 27.6627 26.3741 27.2928 26.8916 26.74C27.4124 26.1837 27.6938 25.6878 27.8679 25.0195C28.041 24.3555 28.041 15.6233 27.8679 14.9594C27.6938 14.291 27.4124 13.7951 26.8916 13.2389C26.3741 12.6861 25.7579 12.3162 25.0461 12.1309C24.3924 11.9607 15.5658 11.9614 14.9332 12.1317ZM25.5225 13.5846C25.949 13.6918 26.3865 14.1434 26.464 14.5561C26.5818 15.1832 26.1012 15.9354 25.5123 16.0458C24.863 16.1675 24.308 15.8891 24.0534 15.3142C23.7496 14.6279 24.0885 13.8713 24.8145 13.6148C25.2006 13.4783 25.115 13.482 25.5225 13.5846ZM21.1305 14.9446C22.5667 15.2487 23.9514 16.3266 24.6037 17.6483C25.0431 18.5387 25.1927 19.262 25.1448 20.2634C25.0796 21.6264 24.6147 22.6515 23.6012 23.6678C22.6299 24.6418 21.3976 25.1483 19.9934 25.1507C18.5802 25.1531 17.3921 24.6549 16.3591 23.6266C15.3335 22.6056 14.8342 21.4147 14.8342 19.9894C14.8342 18.5657 15.3328 17.3754 16.3587 16.3503C17.6433 15.0667 19.3423 14.5661 21.1305 14.9446ZM18.8784 17.0484C17.9836 17.4232 17.5214 17.861 17.1226 18.7117C16.9319 19.1182 16.9085 19.2581 16.9085 19.9894C16.9085 20.7504 16.9269 20.8494 17.1579 21.3368C17.4696 21.9943 17.9982 22.519 18.6698 22.8376C19.1379 23.0598 19.2442 23.0791 20.0005 23.0791C20.7614 23.0791 20.8613 23.0606 21.3469 22.8308C22.0142 22.5149 22.5278 22.0017 22.844 21.3349C23.0739 20.8496 23.0924 20.7498 23.0924 19.9894C23.0924 19.2291 23.0739 19.1293 22.844 18.644C22.5278 17.9772 22.0142 17.464 21.3469 17.1481C20.89 16.9318 20.7265 16.8971 20.0788 16.8785C19.437 16.8601 19.2726 16.8834 18.8784 17.0484Z" fill="black"/>
</svg>
