<svg width="40" height="41" viewBox="0 0 40 41" fill="none" xmlns="http://www.w3.org/2000/svg">
<path fill-rule="evenodd" clip-rule="evenodd" d="M18.1325 0.549829C11.3351 1.20501 5.26377 5.31772 2.18717 11.3513C1.09912 13.4852 0.456237 15.5427 0.10446 18.0168C-0.0514672 19.114 -0.0288452 21.9524 0.145712 23.1757C0.455689 25.3481 1.09709 27.4065 2.08009 29.384C4.03036 33.3072 7.14593 36.4179 11.0827 38.3727C17.4645 41.5415 25.0068 41.1059 30.9592 37.2244C33.2866 35.7068 35.4924 33.4569 36.9982 31.0646C37.5705 30.1553 38.4346 28.3877 38.8271 27.3235C39.2225 26.2511 39.6837 24.3899 39.8547 23.1757C40.028 21.9458 40.0514 19.1004 39.8971 18.0168C39.4351 14.7709 38.4042 12.0075 36.6929 9.42661C35.965 8.32902 35.2382 7.44349 34.2255 6.42071C31.1035 3.26754 27.22 1.31194 22.7793 0.656836C21.8218 0.515593 19.1307 0.453608 18.1325 0.549829ZM25.5674 10.6541C27.75 11.309 29.3146 12.9204 29.8704 15.0857C30.0327 15.7177 30.0327 25.2404 29.8704 25.8723C29.2978 28.1031 27.6355 29.7631 25.4015 30.3348C24.7686 30.4969 15.2323 30.4969 14.5995 30.3348C12.4132 29.7753 10.7792 28.1802 10.1562 25.9974C10.0333 25.5668 10.0202 25.0327 10.0202 20.479C10.0202 14.9679 10.0088 15.1242 10.4916 14.0341C11.2318 12.3626 12.91 10.9758 14.5994 10.6394C14.8362 10.5922 15.1004 10.5389 15.1865 10.5209C15.2726 10.5029 17.5445 10.4959 20.2353 10.5052C24.5685 10.5202 25.1779 10.5373 25.5674 10.6541ZM14.9332 12.6268C14.2597 12.8079 13.7301 13.1236 13.1823 13.6706C12.6222 14.2299 12.3165 14.7491 12.133 15.4525C11.9575 16.1254 11.9602 24.8429 12.1361 25.5174C12.3215 26.2282 12.6917 26.8435 13.245 27.3603C13.8016 27.8803 14.2979 28.1613 14.9667 28.3352C15.6406 28.5105 24.3706 28.5078 25.0461 28.3322C25.7579 28.147 26.3741 27.7774 26.8916 27.2249C27.4124 26.6691 27.6938 26.1735 27.8679 25.5056C28.041 24.8421 28.041 16.116 27.8679 15.4525C27.6938 14.7846 27.4124 14.289 26.8916 13.7332C26.3741 13.1807 25.7579 12.8111 25.0461 12.6259C24.3924 12.4559 15.5658 12.4566 14.9332 12.6268ZM25.5225 14.0786C25.949 14.1858 26.3865 14.637 26.464 15.0495C26.5818 15.6761 26.1012 16.4278 25.5123 16.5381C24.863 16.6597 24.308 16.3816 24.0534 15.807C23.7496 15.1212 24.0885 14.3651 24.8145 14.1088C25.2006 13.9724 25.115 13.9761 25.5225 14.0786ZM21.1305 15.4377C22.5667 15.7415 23.9514 16.8187 24.6037 18.1396C25.0431 19.0293 25.1927 19.7521 25.1448 20.7528C25.0796 22.1149 24.6147 23.1392 23.6012 24.1548C22.6299 25.1282 21.3976 25.6343 19.9934 25.6367C18.5802 25.6392 17.3921 25.1413 16.3591 24.1137C15.3335 23.0934 14.8342 21.9034 14.8342 20.479C14.8342 19.0563 15.3328 17.8668 16.3587 16.8424C17.6433 15.5597 19.3423 15.0595 21.1305 15.4377ZM18.8784 17.54C17.9836 17.9145 17.5214 18.3521 17.1226 19.2021C16.9319 19.6084 16.9085 19.7482 16.9085 20.479C16.9085 21.2395 16.9269 21.3384 17.1579 21.8254C17.4696 22.4825 17.9982 23.0068 18.6698 23.3252C19.1379 23.5473 19.2442 23.5665 20.0005 23.5665C20.7614 23.5665 20.8613 23.5481 21.3469 23.3184C22.0142 23.0027 22.5278 22.4899 22.844 21.8235C23.0739 21.3386 23.0924 21.2389 23.0924 20.479C23.0924 19.7192 23.0739 19.6195 22.844 19.1345C22.5278 18.4682 22.0142 17.9553 21.3469 17.6396C20.89 17.4235 20.7265 17.3888 20.0788 17.3703C19.437 17.3518 19.2726 17.3751 18.8784 17.54Z" fill="#FFA800"/>
</svg>
