<svg width="21" height="36" viewBox="0 0 21 36" fill="none" xmlns="http://www.w3.org/2000/svg">
<path d="M1.14011 19.0864L17.8591 35.0164C18.1381 35.2823 18.5087 35.4307 18.8941 35.4307C19.2795 35.4307 19.6501 35.2823 19.9291 35.0164L19.9471 34.9984C20.0828 34.8695 20.1909 34.7143 20.2647 34.5423C20.3386 34.3703 20.3766 34.1851 20.3766 33.9979C20.3766 33.8107 20.3386 33.6255 20.2647 33.4535C20.1909 33.2815 20.0828 33.1263 19.9471 32.9974L4.20311 17.9974L19.9471 3.00338C20.0828 2.87446 20.1909 2.71928 20.2647 2.54728C20.3386 2.37528 20.3766 2.19006 20.3766 2.00288C20.3766 1.8157 20.3386 1.63048 20.2647 1.45848C20.1909 1.28648 20.0828 1.1313 19.9471 1.00238L19.9291 0.984379C19.6501 0.718445 19.2795 0.570091 18.8941 0.570091C18.5087 0.570091 18.1381 0.718445 17.8591 0.984379L1.14011 16.9144C0.993069 17.0545 0.876011 17.223 0.796029 17.4096C0.716047 17.5963 0.674805 17.7973 0.674805 18.0004C0.674805 18.2035 0.716047 18.4044 0.796029 18.5911C0.876011 18.7778 0.993069 18.9463 1.14011 19.0864Z" fill="#D9D9D9"/>
</svg>
