<svg width="21" height="36" viewBox="0 0 21 36" fill="none" xmlns="http://www.w3.org/2000/svg">
<path d="M19.8599 16.9136L3.14089 0.983622C2.86193 0.717688 2.49131 0.569336 2.10589 0.569336C1.72048 0.569336 1.34986 0.717688 1.0709 0.983622L1.05289 1.00162C0.917189 1.13054 0.80913 1.28572 0.735289 1.45772C0.661448 1.62972 0.623369 1.81494 0.623369 2.00212C0.623369 2.1893 0.661448 2.37452 0.735289 2.54652C0.80913 2.71852 0.917189 2.8737 1.05289 3.00262L16.7969 18.0026L1.05289 32.9966C0.917189 33.1255 0.80913 33.2807 0.735289 33.4527C0.661448 33.6247 0.623369 33.8099 0.623369 33.9971C0.623369 34.1843 0.661448 34.3695 0.735289 34.5415C0.80913 34.7135 0.917189 34.8687 1.05289 34.9976L1.0709 35.0156C1.34986 35.2816 1.72048 35.4299 2.10589 35.4299C2.49131 35.4299 2.86193 35.2816 3.14089 35.0156L19.8599 19.0856C20.0069 18.9455 20.124 18.777 20.204 18.5904C20.284 18.4037 20.3252 18.2027 20.3252 17.9996C20.3252 17.7965 20.284 17.5956 20.204 17.4089C20.124 17.2222 20.0069 17.0537 19.8599 16.9136Z" fill="black"/>
</svg>
