<svg width="40" height="41" viewBox="0 0 40 41" fill="none" xmlns="http://www.w3.org/2000/svg">
<path fill-rule="evenodd" clip-rule="evenodd" d="M18.1005 0.55195C13.0812 1.07347 8.62882 3.31241 5.19857 7.03973C0.364749 12.2923 -1.25489 19.9025 1.00328 26.7523C2.02695 29.8575 3.64996 32.4566 6.02094 34.7876C9.16189 37.8756 12.9813 39.7272 17.552 40.3778C18.4813 40.5101 21.5547 40.5079 22.5197 40.3744C27.1081 39.7392 31.0578 37.7803 34.2335 34.5647C37.3933 31.3652 39.2446 27.5744 39.9018 22.9584C40.0327 22.0382 40.0327 18.9505 39.9018 18.0303C39.5269 15.3969 38.7577 13.0197 37.5985 10.9118C36.6835 9.24792 35.615 7.82283 34.2335 6.42394C31.1156 3.26688 27.2455 1.31589 22.7936 0.65677C21.8339 0.514637 19.0563 0.452683 18.1005 0.55195ZM29.3624 12.6266C29.7077 12.7709 29.8736 13.1024 29.8736 13.6486C29.8736 14.1491 26.5669 29.8565 26.3891 30.2002C26.1384 30.685 25.603 30.869 25.0522 30.6597C24.8689 30.59 23.0595 29.2872 20.4168 27.3221L19.7611 26.8346L18.3388 28.192C17.3026 29.181 16.8473 29.5647 16.6615 29.6054C16.5212 29.6363 16.3888 29.6438 16.3672 29.6222C16.3456 29.6007 16.4035 28.4621 16.4957 27.0921L16.6634 24.6011L17.2127 24.0926C17.5147 23.813 19.6334 21.893 21.9206 19.8259C24.2079 17.7588 26.0793 16.0164 26.0793 15.9538C26.0793 15.8742 25.996 15.8422 25.8024 15.8474C25.5785 15.8535 24.4174 16.5527 19.7301 19.5044C16.5426 21.5116 13.8942 23.154 13.8448 23.154C13.6289 23.154 8.69657 21.5687 8.46249 21.424C7.96306 21.1153 8.0693 20.6472 8.72168 20.2825C8.8916 20.1875 10.1382 19.6827 11.492 19.1608C12.8457 18.6388 15.3967 17.6552 17.1608 16.9751C18.925 16.2949 22.0758 15.0789 24.1626 14.2729C28.7375 12.506 28.6945 12.5218 28.9177 12.5182C29.0159 12.5167 29.216 12.5655 29.3624 12.6266Z" fill="#FFA800"/>
</svg>
