<svg width="40" height="40" viewBox="0 0 40 40" fill="none" xmlns="http://www.w3.org/2000/svg">
<path fill-rule="evenodd" clip-rule="evenodd" d="M18.1005 0.0485652C13.0812 0.570448 8.62882 2.81094 5.19857 6.54083C0.364749 11.797 -1.25489 19.4125 1.00328 26.267C2.02695 29.3744 3.64996 31.9752 6.02094 34.3079C9.16189 37.398 12.9813 39.2509 17.552 39.902C18.4813 40.0343 21.5547 40.0321 22.5197 39.8985C27.1081 39.263 31.0578 37.3027 34.2335 34.0849C37.3933 30.8831 39.2446 27.0897 39.9018 22.4705C40.0327 21.5496 40.0327 18.4598 39.9018 17.539C39.5269 14.9038 38.7577 12.5249 37.5985 10.4156C36.6835 8.75056 35.615 7.32448 34.2335 5.92462C31.1156 2.76538 27.2455 0.813033 22.7936 0.153458C21.8339 0.0112263 19.0563 -0.0507703 18.1005 0.0485652ZM29.3624 12.1316C29.7077 12.276 29.8736 12.6077 29.8736 13.1543C29.8736 13.6552 26.5669 29.3733 26.3891 29.7173C26.1384 30.2025 25.603 30.3866 25.0522 30.1771C24.8689 30.1074 23.0595 28.8037 20.4168 26.8372L19.7611 26.3494L18.3388 27.7077C17.3026 28.6974 16.8473 29.0814 16.6615 29.1222C16.5212 29.153 16.3888 29.1606 16.3672 29.139C16.3456 29.1174 16.4035 27.978 16.4957 26.6071L16.6634 24.1144L17.2127 23.6056C17.5147 23.3257 19.6334 21.4044 21.9206 19.3358C24.2079 17.2673 26.0793 15.5237 26.0793 15.4611C26.0793 15.3815 25.996 15.3494 25.8024 15.3546C25.5785 15.3607 24.4174 16.0604 19.7301 19.0141C16.5426 21.0228 13.8942 22.6662 13.8448 22.6662C13.6289 22.6662 8.69657 21.0798 8.46249 20.9351C7.96306 20.6262 8.0693 20.1577 8.72168 19.7928C8.8916 19.6977 10.1382 19.1926 11.492 18.6702C12.8457 18.148 15.3967 17.1637 17.1608 16.4831C18.925 15.8024 22.0758 14.5856 24.1626 13.779C28.7375 12.0109 28.6945 12.0267 28.9177 12.0231C29.0159 12.0216 29.216 12.0704 29.3624 12.1316Z" fill="black"/>
</svg>
