<svg width="32" height="37" viewBox="0 0 32 37" fill="none" xmlns="http://www.w3.org/2000/svg">
<path d="M13.9993 22.0557V25.3868C11.3472 25.3868 8.80365 26.4396 6.92828 28.3137C5.05292 30.1877 3.99935 32.7295 3.99935 35.3799H0.666016C0.666016 31.8461 2.07077 28.457 4.57126 25.9583C7.07174 23.4595 10.4631 22.0557 13.9993 22.0557ZM13.9993 20.3902C8.47435 20.3902 3.99935 15.9183 3.99935 10.3971C3.99935 4.87596 8.47435 0.404053 13.9993 0.404053C19.5243 0.404053 23.9993 4.87596 23.9993 10.3971C23.9993 15.9183 19.5243 20.3902 13.9993 20.3902ZM13.9993 17.0592C17.6827 17.0592 20.666 14.0779 20.666 10.3971C20.666 6.71635 17.6827 3.73508 13.9993 3.73508C10.316 3.73508 7.33268 6.71635 7.33268 10.3971C7.33268 14.0779 10.316 17.0592 13.9993 17.0592ZM18.3243 30.0702C18.113 29.1815 18.113 28.2557 18.3243 27.3671L16.671 26.4127L18.3377 23.5281L19.991 24.4824C20.6546 23.8543 21.4568 23.391 22.3327 23.13V21.223H25.666V23.13C26.5527 23.3931 27.3527 23.8628 28.0077 24.4824L29.661 23.5281L31.3277 26.4127L29.6743 27.3671C29.8854 28.2552 29.8854 29.1804 29.6743 30.0685L31.3277 31.0229L29.661 33.9075L28.0077 32.9532C27.3441 33.5813 26.5419 34.0446 25.666 34.3056V36.2126H22.3327V34.3056C21.4568 34.0446 20.6546 33.5813 19.991 32.9532L18.3377 33.9075L16.671 31.0229L18.3243 30.0702ZM23.9993 31.2161C24.6624 31.2161 25.2983 30.9529 25.7671 30.4843C26.236 30.0158 26.4993 29.3804 26.4993 28.7178C26.4993 28.0552 26.236 27.4198 25.7671 26.9513C25.2983 26.4827 24.6624 26.2195 23.9993 26.2195C23.3363 26.2195 22.7004 26.4827 22.2316 26.9513C21.7627 27.4198 21.4993 28.0552 21.4993 28.7178C21.4993 29.3804 21.7627 30.0158 22.2316 30.4843C22.7004 30.9529 23.3363 31.2161 23.9993 31.2161Z" fill="black"/>
</svg>
