<svg width="28" height="36" viewBox="0 0 28 36" fill="none" xmlns="http://www.w3.org/2000/svg">
<path d="M0.666016 35.4526C0.666016 31.9188 2.07077 28.5298 4.57126 26.031C7.07174 23.5323 10.4631 22.1285 13.9993 22.1285C17.5356 22.1285 20.927 23.5323 23.4274 26.031C25.9279 28.5298 27.3327 31.9188 27.3327 35.4526H23.9993C23.9993 32.8023 22.9458 30.2605 21.0704 28.3864C19.1951 26.5124 16.6515 25.4595 13.9993 25.4595C11.3472 25.4595 8.80365 26.5124 6.92828 28.3864C5.05292 30.2605 3.99935 32.8023 3.99935 35.4526H0.666016ZM13.9993 20.463C8.47435 20.463 3.99935 15.9911 3.99935 10.4699C3.99935 4.94871 8.47435 0.476807 13.9993 0.476807C19.5243 0.476807 23.9993 4.94871 23.9993 10.4699C23.9993 15.9911 19.5243 20.463 13.9993 20.463ZM13.9993 17.1319C17.6827 17.1319 20.666 14.1507 20.666 10.4699C20.666 6.78911 17.6827 3.80784 13.9993 3.80784C10.316 3.80784 7.33268 6.78911 7.33268 10.4699C7.33268 14.1507 10.316 17.1319 13.9993 17.1319Z" fill="black"/>
</svg>
