<svg width="40" height="40" viewBox="0 0 40 40" fill="none" xmlns="http://www.w3.org/2000/svg">
<g clip-path="url(#clip0_99_2080)">
<path d="M6.6665 36.667C6.6665 33.1308 8.07126 29.7394 10.5717 27.2389C13.0722 24.7384 16.4636 23.3337 19.9998 23.3337C23.5361 23.3337 26.9274 24.7384 29.4279 27.2389C31.9284 29.7394 33.3332 33.1308 33.3332 36.667H6.6665ZM21.6665 26.8053V33.3337H29.4315C28.8357 31.6527 27.8019 30.1613 26.4368 29.0136C25.0717 27.8659 23.4248 27.1035 21.6665 26.8053V26.8053ZM18.3332 33.3337V26.8053C16.5748 27.1035 14.928 27.8659 13.5629 29.0136C12.1978 30.1613 11.164 31.6527 10.5682 33.3337H18.3332ZM19.9998 21.667C14.4748 21.667 9.99984 17.192 9.99984 11.667C9.99984 6.14199 14.4748 1.66699 19.9998 1.66699C25.5248 1.66699 29.9998 6.14199 29.9998 11.667C29.9998 17.192 25.5248 21.667 19.9998 21.667ZM19.9998 18.3337C23.6832 18.3337 26.6665 15.3503 26.6665 11.667C26.6665 7.98366 23.6832 5.00033 19.9998 5.00033C16.3165 5.00033 13.3332 7.98366 13.3332 11.667C13.3332 15.3503 16.3165 18.3337 19.9998 18.3337Z" fill="black"/>
</g>
<defs>
<clipPath id="clip0_99_2080">
<rect width="40" height="40" fill="white"/>
</clipPath>
</defs>
</svg>
