<svg width="32" height="38" viewBox="0 0 32 38" fill="none" xmlns="http://www.w3.org/2000/svg">
<path d="M13.9993 21.9832V25.3143C11.3472 25.3143 8.80365 26.3671 6.92828 28.2412C5.05292 30.1152 3.99935 32.657 3.99935 35.3073H0.666016C0.666016 31.7736 2.07077 28.3845 4.57126 25.8858C7.07174 23.387 10.4631 21.9832 13.9993 21.9832ZM13.9993 20.3177C8.47435 20.3177 3.99935 15.8458 3.99935 10.3246C3.99935 4.80345 8.47435 0.331543 13.9993 0.331543C19.5243 0.331543 23.9993 4.80345 23.9993 10.3246C23.9993 15.8458 19.5243 20.3177 13.9993 20.3177ZM13.9993 16.9867C17.6827 16.9867 20.666 14.0054 20.666 10.3246C20.666 6.64384 17.6827 3.66257 13.9993 3.66257C10.316 3.66257 7.33268 6.64384 7.33268 10.3246C7.33268 14.0054 10.316 16.9867 13.9993 16.9867ZM23.9993 34.4746L19.101 37.0478L20.036 31.5982L16.0743 27.7376L21.551 26.9415L23.9993 21.9832L26.4493 26.9415L31.9243 27.7376L27.9627 31.5982L28.896 37.0478L23.9993 34.4746Z" fill="black"/>
</svg>
